<?xml version="1.0" encoding="UTF-8"?><svg id="Layer_1" xmlns="http://www.w3.org/2000/svg" viewBox="0 0 1216.77 510"><defs><style>.cls-1{fill:#222221;}</style></defs><path class="cls-1" d="m708.12,49.85c.3,0,.6,0,.89-.02,9.13-.37,18.4-.24,28.19-.11,5.05.07,10.12.13,15.21.13h240.83c12.32,0,22.3-9.98,22.3-22.3s-9.98-22.3-22.3-22.3h-240.83c-4.89,0-9.77-.07-14.63-.13-9.95-.14-20.23-.27-30.52.14-12.31.48-21.89,10.85-21.4,23.16.47,12.01,10.35,21.42,22.26,21.42Z"/><path class="cls-1" d="m1019.73,460.41h-291.69c-113.19,0-205.27-92.08-205.27-205.27,0-28.84,6-56.85,17.83-83.27,5.04-11.24,0-24.43-11.23-29.46-11.24-5.04-24.43-.01-29.47,11.23-14.41,32.18-21.73,66.33-21.73,101.5,0,137.78,112.09,249.87,249.87,249.87h291.69c12.32,0,22.3-9.98,22.3-22.3s-9.98-22.3-22.3-22.3Z"/><path class="cls-1" d="m505.7,458.45c-9.45,1.29-18.79,1.95-27.76,1.95h-223.07c-113.19,0-205.27-92.08-205.27-205.27,0-3.58.09-7.14.28-10.69.03-.62.1-1.24.14-1.86.18-2.95.39-5.9.7-8.83.03-.32.09-.63.12-.94,2.3-20.98,7.84-41.4,16.59-60.94.14-.31.19-.64.32-.95,29.85-66.07,93.64-113.6,169.04-120.22.05,0,.1,0,.15,0,3.15-.28,6.15-.48,9.05-.62,2.95-.13,5.91-.23,8.89-.23h223.07c113.19,0,205.28,92.09,205.28,205.28,0,27.73-5.52,54.69-16.41,80.13-4.85,11.32.41,24.43,11.72,29.27,1.42.61,2.87,1.05,4.33,1.35.57.12,1.13.11,1.7.18.89.11,1.78.27,2.67.27.02,0,.04,0,.06,0,.08,0,.15-.03.23-.03,1.83-.02,3.62-.32,5.37-.78.48-.13.94-.26,1.41-.41,1.78-.59,3.52-1.33,5.1-2.35.05-.03.09-.08.14-.11,1.54-1.01,2.91-2.27,4.17-3.66.33-.36.64-.72.95-1.11,1.22-1.53,2.33-3.18,3.14-5.07,13.27-31.02,20.01-63.88,20.01-97.68,0-137.78-112.09-249.87-249.87-249.87h-223.07c-3.6,0-7.27.1-11.03.28C124.51,10.76,26.66,100.03,8.18,215.5c-.03.21-.08.43-.11.64-.58,3.66-1.05,7.35-1.46,11.06-.07.65-.18,1.28-.25,1.93-.36,3.45-.6,6.92-.82,10.41-.05.86-.15,1.71-.2,2.57-.22,4.31-.34,8.65-.34,13.02,0,137.78,112.09,249.87,249.87,249.87h223.07c10.99,0,22.37-.79,33.82-2.36,12.2-1.67,20.73-12.92,19.07-25.12-1.67-12.2-12.88-20.7-25.12-19.07Z"/><path class="cls-1" d="m1091.65,163.64h71.06c12.32,0,22.3-9.98,22.3-22.3s-9.98-22.3-22.3-22.3h-71.06c-12.32,0-22.3,9.98-22.3,22.3s9.98,22.3,22.3,22.3Z"/><path class="cls-1" d="m830.75,163.64h173.31c12.32,0,22.3-9.98,22.3-22.3s-9.98-22.3-22.3-22.3h-173.31c-12.32,0-22.3,9.98-22.3,22.3s9.98,22.3,22.3,22.3Z"/><path class="cls-1" d="m1162.72,346.62h-115.66c-12.32,0-22.3,9.98-22.3,22.3s9.98,22.3,22.3,22.3h115.66c12.32,0,22.3-9.98,22.3-22.3s-9.98-22.3-22.3-22.3Z"/><path class="cls-1" d="m959.46,346.62h-128.71c-12.32,0-22.3,9.98-22.3,22.3s9.98,22.3,22.3,22.3h128.71c12.32,0,22.3-9.98,22.3-22.3s-9.98-22.3-22.3-22.3Z"/><path class="cls-1" d="m1189.48,236.21h-195.94c-12.32,0-22.3,9.98-22.3,22.3s9.98,22.3,22.3,22.3h195.94c12.32,0,22.3-9.98,22.3-22.3s-9.98-22.3-22.3-22.3Z"/><path class="cls-1" d="m830.75,280.81h75.19c12.32,0,22.3-9.98,22.3-22.3s-9.98-22.3-22.3-22.3h-75.19c-12.32,0-22.3,9.98-22.3,22.3s9.98,22.3,22.3,22.3Z"/></svg>